HIERARCHY
ROOT Hips
{
  OFFSET 5.72205e-005 65.662 3.42586
  CHANNELS 6 Xposition Yposition Zposition Zrotation Xrotation Yrotation
  JOINT Chest
  {
    OFFSET 0 8.7983 -4.7612
    CHANNELS 3 Zrotation Xrotation Yrotation
    JOINT Chest2
    {
      OFFSET 0 8.0291 0.4195
      CHANNELS 3 Zrotation Xrotation Yrotation
      JOINT Chest3
      {
        OFFSET 0 9.9351 -2.2114
        CHANNELS 3 Zrotation Xrotation Yrotation
        JOINT Neck
        {
          OFFSET 0 22.3885 -0.4656
          CHANNELS 3 Zrotation Xrotation Yrotation
          JOINT Head
          {
            OFFSET -0.0001 12.643 3.4389
            CHANNELS 3 Zrotation Xrotation Yrotation
            End Site
            {
              OFFSET 0.0001 17.6655 0.5274
            }
          }
        }
        JOINT LeftCollar
        {
          OFFSET 2.2603 21.606 7.4023
          CHANNELS 3 Zrotation Xrotation Yrotation
          JOINT LeftShoulder
          {
            OFFSET 13.5163 -1.1332 -5.0146
            CHANNELS 3 Zrotation Xrotation Yrotation
            JOINT LeftElbow
            {
              OFFSET -0.0995 -28.05 -0.2431
              CHANNELS 3 Zrotation Xrotation Yrotation
              JOINT LeftWrist
              {
                OFFSET 0.0679 -23.3996 -0.1402
                CHANNELS 3 Zrotation Xrotation Yrotation
                JOINT LeftFinger1
                {
                  OFFSET 0.7932 -9.069 2.5189
                  CHANNELS 3 Zrotation Xrotation Yrotation
                  JOINT LeftFinger11
                  {
                    OFFSET -0.8272 -3.3923 0.5977
                    CHANNELS 3 Zrotation Xrotation Yrotation
                    JOINT LeftFinger12
                    {
                      OFFSET -0.5649 -2.3158 0.4082
                      CHANNELS 3 Zrotation Xrotation Yrotation
                      End Site
                      {
                        OFFSET -0.4919 -1.6479 0.2673
                      }
                    }
                  }
                }
                JOINT LeftFinger2
                {
                  OFFSET 0.9159 -9.2044 0.2193
                  CHANNELS 3 Zrotation Xrotation Yrotation
                  JOINT LeftFinger21
                  {
                    OFFSET 0.0117 -4.1944 -0.0248
                    CHANNELS 3 Zrotation Xrotation Yrotation
                    JOINT LeftFinger22
                    {
                      OFFSET 0.0071 -2.3249 -0.0142
                      CHANNELS 3 Zrotation Xrotation Yrotation
                      End Site
                      {
                        OFFSET -0.1475 -2.0882 0.0028
                      }
                    }
                  }
                }
                JOINT LeftFinger3
                {
                  OFFSET 0.6113 -8.7231 -2.0637
                  CHANNELS 3 Zrotation Xrotation Yrotation
                  JOINT LeftFinger31
                  {
                    OFFSET -0.1927 -3.8059 -0.2383
                    CHANNELS 3 Zrotation Xrotation Yrotation
                    JOINT LeftFinger32
                    {
                      OFFSET -0.1091 -2.1688 -0.1362
                      CHANNELS 3 Zrotation Xrotation Yrotation
                      End Site
                      {
                        OFFSET -0.2358 -1.9176 -0.0906
                      }
                    }
                  }
                }
                JOINT LeftFinger4
                {
                  OFFSET -0.6151 -8.0947 -3.5641
                  CHANNELS 3 Zrotation Xrotation Yrotation
                  JOINT LeftFinger41
                  {
                    OFFSET -0.4882 -2.341 -0.6462
                    CHANNELS 3 Zrotation Xrotation Yrotation
                    JOINT LeftFinger42
                    {
                      OFFSET -0.3575 -1.7167 -0.4742
                      CHANNELS 3 Zrotation Xrotation Yrotation
                      End Site
                      {
                        OFFSET -0.4187 -1.5237 -0.3496
                      }
                    }
                  }
                }
                JOINT LeftFinger0
                {
                  OFFSET -1.42 -1.8761 1.4223
                  CHANNELS 3 Zrotation Xrotation Yrotation
                  JOINT LeftFinger01
                  {
                    OFFSET -1.1471 -3.4929 2.6334
                    CHANNELS 3 Zrotation Xrotation Yrotation
                    JOINT LeftFinger02
                    {
                      OFFSET -0.823 -2.3 1.6571
                      CHANNELS 3 Zrotation Xrotation Yrotation
                      End Site
                      {
                        OFFSET -0.5822 -1.6914 1.1582
                      }
                    }
                  }
                }
              }
            }
          }
        }
        JOINT RightCollar
        {
          OFFSET -2.2603 21.606 7.4023
          CHANNELS 3 Zrotation Xrotation Yrotation
          JOINT RightShoulder
          {
            OFFSET -13.5187 -1.1334 -5.0155
            CHANNELS 3 Zrotation Xrotation Yrotation
            JOINT RightElbow
            {
              OFFSET 0.0994 -28.0499 -0.2431
              CHANNELS 3 Zrotation Xrotation Yrotation
              JOINT RightWrist
              {
                OFFSET -0.0679 -23.3996 -0.1402
                CHANNELS 3 Zrotation Xrotation Yrotation
                JOINT RightFinger1
                {
                  OFFSET -0.7932 -9.0691 2.5189
                  CHANNELS 3 Zrotation Xrotation Yrotation
                  JOINT RightFinger11
                  {
                    OFFSET 0.8272 -3.3923 0.5977
                    CHANNELS 3 Zrotation Xrotation Yrotation
                    JOINT RightFinger12
                    {
                      OFFSET 0.565 -2.3158 0.4082
                      CHANNELS 3 Zrotation Xrotation Yrotation
                      End Site
                      {
                        OFFSET 0.4919 -1.6479 0.2673
                      }
                    }
                  }
                }
                JOINT RightFinger2
                {
                  OFFSET -0.916 -9.2044 0.2193
                  CHANNELS 3 Zrotation Xrotation Yrotation
                  JOINT RightFinger21
                  {
                    OFFSET -0.0117 -4.1944 -0.0248
                    CHANNELS 3 Zrotation Xrotation Yrotation
                    JOINT RightFinger22
                    {
                      OFFSET -0.0071 -2.3249 -0.0142
                      CHANNELS 3 Zrotation Xrotation Yrotation
                      End Site
                      {
                        OFFSET 0.1475 -2.0882 0.0028
                      }
                    }
                  }
                }
                JOINT RightFinger3
                {
                  OFFSET -0.6113 -8.7231 -2.0637
                  CHANNELS 3 Zrotation Xrotation Yrotation
                  JOINT RightFinger31
                  {
                    OFFSET 0.1927 -3.8059 -0.2383
                    CHANNELS 3 Zrotation Xrotation Yrotation
                    JOINT RightFinger32
                    {
                      OFFSET 0.1091 -2.1688 -0.1362
                      CHANNELS 3 Zrotation Xrotation Yrotation
                      End Site
                      {
                        OFFSET 0.2358 -1.9176 -0.0906
                      }
                    }
                  }
                }
                JOINT RightFinger4
                {
                  OFFSET 0.6151 -8.0947 -3.564
                  CHANNELS 3 Zrotation Xrotation Yrotation
                  JOINT RightFinger41
                  {
                    OFFSET 0.4882 -2.341 -0.6462
                    CHANNELS 3 Zrotation Xrotation Yrotation
                    JOINT RightFinger42
                    {
                      OFFSET 0.3574 -1.7166 -0.4742
                      CHANNELS 3 Zrotation Xrotation Yrotation
                      End Site
                      {
                        OFFSET 0.4187 -1.5237 -0.3496
                      }
                    }
                  }
                }
                JOINT RightFinger0
                {
                  OFFSET 1.4199 -1.8761 1.4221
                  CHANNELS 3 Zrotation Xrotation Yrotation
                  JOINT RightFinger01
                  {
                    OFFSET 1.1472 -3.4929 2.6336
                    CHANNELS 3 Zrotation Xrotation Yrotation
                    JOINT RightFinger02
                    {
                      OFFSET 0.8229 -2.3 1.6571
                      CHANNELS 3 Zrotation Xrotation Yrotation
                      End Site
                      {
                        OFFSET 0.5822 -1.6914 1.1582
                      }
                    }
                  }
                }
              }
            }
          }
        }
      }
    }
  }
  JOINT RightHip
  {
    OFFSET -9.412 3.9771 -0.7758
    CHANNELS 3 Zrotation Xrotation Yrotation
    JOINT RightKnee
    {
      OFFSET -0.7531 -40.938 0
      CHANNELS 3 Zrotation Xrotation Yrotation
      JOINT RightAnkle
      {
        OFFSET 0 -40.1986 0
        CHANNELS 3 Zrotation Xrotation Yrotation
        JOINT RightToe
        {
          OFFSET 0 -4.4182 9.239
          CHANNELS 3 Zrotation Xrotation Yrotation
          End Site
          {
            OFFSET 0 0 6.1981
          }
        }
      }
    }
  }
  JOINT LeftHip
  {
    OFFSET 9.4119 3.9773 -0.7758
    CHANNELS 3 Zrotation Xrotation Yrotation
    JOINT LeftKnee
    {
      OFFSET 0.7532 -40.9383 0
      CHANNELS 3 Zrotation Xrotation Yrotation
      JOINT LeftAnkle
      {
        OFFSET 0 -40.1986 0
        CHANNELS 3 Zrotation Xrotation Yrotation
        JOINT LeftToe
        {
          OFFSET 0 -4.4182 9.239
          CHANNELS 3 Zrotation Xrotation Yrotation
          End Site
          {
            OFFSET 0 0 6.1981
          }
        }
      }
    }
  }
}
MOTION
Frames:	4
Frame Time:	0.0333333
5.72205e-005 65.662 3.42586 0 0 -0 0 0 -0 0 0 -0 0 0 -0 0 0 -0 0 0 -0 0 0 -12.5014 88.1196 14.2451 10.6914 -0.00160068 -0.00239207 0.000740045 -8.4365e-005 7.00714e-005 -9.52055e-007 9.93923e-017 -1.98785e-016 -1.59028e-015 9.93923e-017 -5.96354e-016 -1.59028e-015 -9.93923e-017 -5.96354e-016 -1.59028e-015 9.93923e-017 -1.98785e-016 -1.59028e-015 -0.0128176 0.00232552 8.52707e-005 9.93923e-017 5.96354e-016 -0 9.93923e-017 -1.98785e-016 -1.59028e-015 -0.0160551 0.00299681 0.000857156 -2.48481e-016 0 3.18055e-015 9.93923e-017 -1.98785e-016 -1.59028e-015 -0.0125865 0.0031206 0.00282719 0 1.98785e-016 -0 9.93923e-017 -1.98785e-016 -1.59028e-015 9.93923e-017 -5.96354e-016 -1.59028e-015 -9.93923e-017 -5.96354e-016 -1.59028e-015 -0.865644 0.16582 7.03859 -88.0329 10.2057 -10.5567 0.0015593 -0.00248883 -0.000788628 7.87605e-005 4.10553e-005 1.24965e-005 -3.97569e-016 -7.95139e-016 3.18055e-015 -1.98785e-016 -3.97569e-016 3.18055e-015 -1.98785e-016 0 3.18055e-015 -3.97569e-016 -7.95139e-016 3.18055e-015 0.0129473 0.00231697 -8.70038e-005 9.93923e-017 -7.95139e-016 1.59028e-015 -3.97569e-016 -7.95139e-016 3.18055e-015 0.0163314 0.00303369 -0.000872333 3.97569e-016 7.95139e-016 -3.18055e-015 -3.97569e-016 -7.95139e-016 3.18055e-015 0.0145763 0.00367772 -0.00326275 9.93923e-017 -3.97569e-016 -0 -3.97569e-016 -7.95139e-016 3.18055e-015 -1.98785e-016 -3.97569e-016 3.18055e-015 -1.98785e-016 0 3.18055e-015 3.42482 1.32465 -0.0626183 0.000117508 0.717283 0.000978199 -3.4257 -2.04197 -0.0604716 6.47761e-025 0 -0 -3.42483 1.34017 0.0627307 -0.000193936 0.682302 -0.0013703 3.42574 -2.02253 0.0595886 -8.45714e-024 0 -7.40531e-025 
10.5203 2.05938 17.5241 -49.6974 61.9718 46.144 -1.37451 3.30683 0.217972 -2.76859 6.60744 0.516783 -2.7686 6.60748 0.516789 3.48136e-005 -24.0064 -8.1908e-006 -0.0600542 -22.3427 -0.0243315 -8.26564 -0.192676 -5.54236 65.5237 -14.621 62.313 -168.775 -51.3989 149.864 20.3906 -22.6613 -9.51188 -2.17412e-006 -7.25311e-006 -1.43348e-005 -2.13539e-006 8.33081e-007 9.38777e-007 -3.18055e-015 0 -1.19271e-015 -2.17412e-006 -7.25311e-006 -1.43348e-005 -0.0128034 0.00232379 8.85912e-005 6.36111e-015 3.18055e-015 9.54166e-015 -2.17412e-006 -7.25311e-006 -1.43348e-005 -0.0160337 0.00298842 0.000863315 1.59028e-015 -1.59028e-015 -0 -2.17412e-006 -7.25311e-006 -1.43348e-005 -0.0126233 0.00312996 0.00284274 -1.59028e-015 7.95139e-015 -3.97569e-016 -2.17412e-006 -7.25311e-006 -1.43348e-005 -2.13539e-006 8.33081e-007 9.38777e-007 -3.18055e-015 0 -1.19271e-015 3.90963 0.0626291 2.56755 -67.771 -29.9378 -64.7252 -175.591 -72.351 -135.69 14.4435 8.21532 -37.2052 3.18055e-015 -1.59028e-015 -0 -1.65521e-032 -2.38542e-015 -3.97569e-016 3.18055e-015 -5.56597e-015 -3.18055e-015 3.18055e-015 -1.59028e-015 -0 0.012983 0.0023215 -8.26237e-005 8.62626e-006 -1.88374e-006 7.23616e-007 3.18055e-015 -1.59028e-015 -0 0.0163763 0.00303997 -0.000869955 -3.18055e-015 2.38542e-015 3.97569e-016 3.18055e-015 -1.59028e-015 -0 0.0146171 0.00367167 -0.00325174 -3.01434e-006 -8.63977e-006 3.36744e-007 3.18055e-015 -1.59028e-015 -0 -1.65521e-032 -2.38542e-015 -3.97569e-016 3.18055e-015 -5.56597e-015 -3.18055e-015 -98.3684 -26.2523 -85.4154 -177.322 69.2491 173.002 -7.13628 10.6768 -2.19758 6.32157e-006 6.06417e-007 -7.01168e-006 10.8655 -6.32923 15.1429 -10.1213 41.1966 31.8272 0.80386 32.4786 -11.9702 2.32707e-007 5.96637e-007 -2.39789e-006 
10.5844 2.03178 17.6457 -49.6974 61.9718 46.144 -1.37452 3.30681 0.217963 -2.76859 6.60745 0.516785 -2.7686 6.60748 0.516788 3.25698e-005 -24.0064 -9.93225e-006 -0.230437 -21.9119 -0.577836 -8.74334 0.08118 -5.59889 65.5237 -14.621 62.3131 -168.775 -51.3989 149.865 20.4834 -23.1462 -9.60833 1.83302e-007 -1.24011e-005 -4.45587e-006 1.59028e-015 1.59028e-015 1.19271e-015 2.73722e-006 -1.31178e-006 6.81092e-006 1.83302e-007 -1.24011e-005 -4.45587e-006 -0.012822 0.00232833 8.42631e-005 6.02422e-006 -2.29257e-006 6.10615e-006 1.83302e-007 -1.24011e-005 -4.45587e-006 -0.0160537 0.00299701 0.000867639 -3.59087e-006 -1.12553e-005 -3.16823e-006 1.83302e-007 -1.24011e-005 -4.45587e-006 -0.0125669 0.00312305 0.00283048 -1.94731e-006 -1.21593e-005 -3.52054e-006 1.83302e-007 -1.24011e-005 -4.45587e-006 1.59028e-015 1.59028e-015 1.19271e-015 2.73722e-006 -1.31178e-006 6.81092e-006 4.23011 0.346014 2.66731 -67.7709 -29.9378 -64.7252 -175.591 -72.3509 -135.69 14.3001 7.97503 -36.9233 6.13791e-006 5.26568e-008 4.58457e-006 6.36111e-015 -7.95139e-016 -1.19271e-015 -6.13791e-006 -5.26563e-008 -4.58458e-006 6.13791e-006 5.26568e-008 4.58457e-006 0.0129303 0.00232791 -9.66893e-005 -7.8107e-006 -5.29387e-006 6.4607e-006 6.13791e-006 5.26568e-008 4.58457e-006 0.0163503 0.00303793 -0.000870345 3.18055e-015 -1.11319e-014 -1.47101e-014 6.13791e-006 5.26568e-008 4.58457e-006 0.014558 0.0036888 -0.00325826 -3.18055e-015 7.95139e-016 3.57812e-015 6.13791e-006 5.26568e-008 4.58457e-006 6.36111e-015 -7.95139e-016 -1.19271e-015 -6.13791e-006 -5.26563e-008 -4.58458e-006 -98.369 -26.2533 -85.4168 -177.322 69.2499 173.001 -7.13705 10.6782 -2.19792 -3.9218e-006 -4.76218e-006 1.69348e-005 10.7742 -6.01431 15.0888 -10.0975 40.6017 31.8052 0.961507 32.739 -11.9743 -1.06197e-005 3.18423e-006 -1.65286e-006 
10.6485 2.00418 17.7673 -49.6974 61.9718 46.144 -1.37451 3.30683 0.217972 -2.76859 6.60744 0.516783 -2.7686 6.60748 0.516789 3.48136e-005 -24.0064 -8.1908e-006 -0.396286 -21.4784 -1.1298 -9.2213 0.3558 -5.65319 65.5237 -14.621 62.3131 -168.775 -51.3989 149.865 20.5757 -23.6319 -9.70437 -4.77083e-015 1.11319e-014 -2.38542e-015 1.59028e-015 1.11319e-014 -1.19271e-015 -8.52515e-007 4.69815e-006 3.6443e-006 -4.77083e-015 1.11319e-014 -2.38542e-015 -0.012812 0.00232469 8.42091e-005 -1.33338e-006 4.10275e-006 4.22232e-006 -4.77083e-015 1.11319e-014 -2.38542e-015 -0.0160364 0.00299602 0.000851702 -2.60441e-006 8.85968e-007 1.50957e-006 -4.77083e-015 1.11319e-014 -2.38542e-015 -0.0125893 0.0031189 0.00282023 -2.80677e-006 -6.85482e-006 1.29234e-007 -4.77083e-015 1.11319e-014 -2.38542e-015 1.59028e-015 1.11319e-014 -1.19271e-015 -8.52515e-007 4.69815e-006 3.6443e-006 4.55033 0.630146 2.76556 -67.771 -29.9378 -64.7252 -175.591 -72.3509 -135.69 14.1579 7.73398 -36.6421 -3.53113e-031 -6.36111e-015 -3.18055e-015 3.18055e-015 -7.95139e-015 -8.34896e-015 -3.53113e-031 -3.18055e-015 -6.36111e-015 -3.53113e-031 -6.36111e-015 -3.18055e-015 0.0129601 0.00230749 -7.66668e-005 -1.50398e-006 2.30718e-006 1.64916e-007 -3.53113e-031 -6.36111e-015 -3.18055e-015 0.0163122 0.00301775 -0.000857329 -3.18055e-015 2.38542e-015 -4.37326e-015 -3.53113e-031 -6.36111e-015 -3.18055e-015 0.0144948 0.00365379 -0.003242 -6.36111e-015 -3.97569e-015 -4.37326e-015 -3.53113e-031 -6.36111e-015 -3.18055e-015 3.18055e-015 -7.95139e-015 -8.34896e-015 -3.53113e-031 -3.18055e-015 -6.36111e-015 -98.3697 -26.2543 -85.4182 -177.322 69.2506 173 -7.13779 10.6795 -2.19824 1.9851e-006 2.37073e-007 -7.95597e-007 10.6842 -5.69939 15.0352 -10.0772 40.0066 31.7853 1.1208 32.9985 -11.9793 8.34961e-007 1.70562e-009 1.34293e-006 
